<?xml version="1.0" encoding="utf-8"?>
<!-- Generator: Adobe Illustrator 16.0.0, SVG Export Plug-In . SVG Version: 6.00 Build 0)  -->
<!DOCTYPE svg PUBLIC "-//W3C//DTD SVG 1.1//EN" "http://www.w3.org/Graphics/SVG/1.1/DTD/svg11.dtd">
<svg version="1.1" id="Capa_1" xmlns="http://www.w3.org/2000/svg" xmlns:xlink="http://www.w3.org/1999/xlink" x="0px" y="0px"
	 width="16px" height="16px" viewBox="0 0 16 16" enable-background="new 0 0 16 16" xml:space="preserve">
<path fill="#FFFFFF" d="M6.5,12C9.537,12,12,9.537,12,6.5C12,3.462,9.537,1,6.5,1l0,0C3.462,1,1,3.462,1,6.5
	C1,9.537,3.462,12,6.5,12z M13,6.5c0,3.59-2.91,6.5-6.5,6.5S0,10.09,0,6.5S2.91,0,6.5,0S13,2.91,13,6.5z"/>
<path fill="#FFFFFF" d="M10.344,11.742c0.03,0.04,0.063,0.078,0.098,0.115l3.851,3.85c0.391,0.391,1.024,0.391,1.415,0
	s0.391-1.023,0-1.414l-3.85-3.85c-0.036-0.037-0.074-0.07-0.115-0.101C11.35,10.878,10.879,11.35,10.344,11.742L10.344,11.742z"/>
<path fill="#FFFFFF" d="M6.5,3C6.776,3,7,3.224,7,3.5V6h2.5C9.776,6,10,6.224,10,6.5S9.776,7,9.5,7H7v2.5C7,9.776,6.776,10,6.5,10
	S6,9.776,6,9.5V7H3.5C3.224,7,3,6.776,3,6.5S3.224,6,3.5,6H6V3.5C6,3.224,6.224,3,6.5,3z"/>
</svg>
